<?xml version="1.0" standalone="no"?>
<!DOCTYPE svg PUBLIC "-//W3C//DTD SVG 20010904//EN"
 "http://www.w3.org/TR/2001/REC-SVG-20010904/DTD/svg10.dtd">
<svg version="1.0" xmlns="http://www.w3.org/2000/svg"
 width="992.000000pt" height="992.000000pt" viewBox="0 0 992.000000 992.000000"
 preserveAspectRatio="xMidYMid meet">
<metadata>
Created by potrace 1.14, written by Peter Selinger 2001-2017
</metadata>
<g transform="translate(0.000000,992.000000) scale(0.100000,-0.100000)"
fill="#000000" stroke="none">
<path d="M5592 9828 c-29 -4 -66 -15 -81 -23 -16 -8 -39 -16 -52 -19 -13 -2
-44 -13 -69 -24 -49 -21 -82 -35 -90 -36 -3 -1 -16 -8 -30 -16 -14 -7 -26 -13
-28 -12 -5 4 -264 -130 -371 -192 -62 -36 -118 -66 -122 -66 -5 0 -9 -4 -9
-10 0 -5 -16 -16 -35 -25 -19 -9 -39 -23 -46 -31 -6 -8 -18 -14 -25 -14 -8 0
-14 -5 -14 -10 0 -6 -10 -14 -23 -19 -12 -5 -46 -27 -74 -50 -29 -22 -55 -41
-58 -41 -5 0 -29 -18 -71 -55 -12 -11 -35 -29 -50 -40 -15 -11 -42 -33 -60
-50 -18 -16 -61 -55 -95 -85 -34 -30 -114 -106 -177 -167 -125 -123 -128 -124
-220 -103 -23 6 -59 13 -80 16 -20 3 -46 7 -58 9 -136 22 -512 23 -699 1 -16
-2 -58 -7 -92 -10 -34 -4 -72 -9 -85 -12 -13 -2 -61 -6 -108 -9 -153 -10 -189
-14 -242 -30 -77 -23 -158 -75 -158 -102 0 -7 -4 -13 -10 -13 -9 0 -23 -42
-35 -105 -7 -40 -7 -129 0 -185 3 -25 8 -60 10 -79 13 -104 55 -229 158 -473
6 -15 9 -29 7 -30 -3 -2 -95 -48 -205 -102 -110 -55 -202 -102 -205 -105 -3
-4 -16 -12 -30 -19 -14 -7 -34 -18 -45 -25 -11 -7 -43 -25 -70 -41 -28 -16
-52 -32 -55 -35 -3 -3 -22 -17 -43 -31 -42 -28 -56 -57 -58 -120 -2 -53 16
-111 45 -148 25 -30 84 -88 106 -102 12 -8 35 -25 51 -38 15 -13 70 -47 121
-76 51 -28 94 -59 95 -67 2 -9 -39 -38 -113 -79 -124 -69 -153 -101 -118 -127
10 -7 29 -13 43 -14 14 0 35 -3 46 -5 11 -2 115 -7 230 -10 116 -4 212 -8 215
-11 2 -2 -2 -14 -10 -26 -23 -37 -118 -232 -141 -289 -64 -162 -94 -287 -105
-440 -9 -111 -9 -94 0 -245 l8 -121 -41 -56 c-23 -31 -41 -59 -40 -62 0 -4 -4
-10 -9 -13 -10 -7 -52 -65 -112 -156 -22 -33 -43 -65 -47 -71 -14 -18 -31 -48
-64 -109 -17 -33 -35 -62 -38 -65 -14 -11 -157 -333 -165 -373 -2 -7 -6 -20
-10 -29 -4 -9 -9 -22 -10 -30 -2 -7 -6 -20 -9 -28 -14 -34 -56 -192 -66 -246
-24 -136 -30 -251 -17 -291 14 -44 104 -33 323 38 18 5 40 12 50 14 10 3 67
18 128 35 60 16 121 32 135 34 56 11 88 18 141 32 79 20 92 18 129 -16 18 -17
44 -33 59 -36 14 -3 31 -7 37 -9 21 -6 31 16 26 60 -4 41 -2 46 23 55 40 15
130 13 144 -4 7 -8 13 -33 14 -56 l2 -42 -60 -25 c-161 -67 -451 -221 -502
-267 -6 -6 -28 -22 -48 -36 -31 -21 -95 -73 -192 -155 -13 -11 -23 -23 -23
-28 0 -5 -13 -21 -29 -36 -59 -55 -149 -233 -165 -326 -5 -29 -19 -179 -19
-200 8 -302 123 -470 358 -523 41 -10 162 -24 200 -24 36 0 217 22 225 27 4 2
22 7 40 10 36 6 165 68 191 91 8 8 19 14 23 14 16 0 102 99 121 139 11 22 23
41 28 41 4 0 7 9 7 19 0 11 4 22 9 25 5 3 12 27 16 53 5 27 9 53 10 58 2 6 6
60 9 120 12 192 17 229 39 268 11 20 24 37 29 37 4 0 8 5 8 10 0 16 77 87 137
127 48 31 183 93 238 109 6 1 43 12 82 23 92 27 136 28 131 3 -2 -9 -17 -23
-35 -31 -29 -13 -40 -31 -48 -81 -9 -50 -26 -125 -45 -190 -12 -41 -22 -81
-23 -87 0 -7 -4 -13 -9 -13 -4 0 -7 -3 -6 -7 3 -17 -21 -60 -47 -83 -15 -14
-63 -60 -106 -103 -43 -42 -82 -77 -87 -77 -14 0 -36 -61 -41 -113 -1 -7 -41
-48 -102 -104 -13 -12 -30 -28 -37 -35 -41 -42 -56 -58 -97 -101 -25 -26 -45
-49 -45 -52 0 -3 -12 -18 -27 -33 -41 -41 -106 -121 -121 -148 -7 -13 -17 -24
-22 -24 -6 0 -10 -6 -10 -13 0 -7 -9 -18 -20 -25 -11 -7 -20 -17 -20 -22 0 -6
-15 -31 -34 -57 -52 -75 -56 -84 -72 -168 -3 -16 -9 -32 -13 -35 -5 -3 -16
-22 -24 -42 -15 -35 -14 -39 9 -85 20 -42 68 -98 131 -154 27 -25 184 -119
199 -119 25 0 33 -63 10 -86 -8 -8 -17 -14 -20 -14 -8 0 -128 -82 -160 -109
-82 -71 -186 -194 -186 -221 0 -5 -3 -10 -8 -10 -25 0 -55 -241 -31 -256 5 -3
7 -10 4 -15 -9 -13 91 -108 121 -115 13 -3 24 -9 24 -13 0 -4 19 -18 43 -30
59 -31 105 -65 129 -96 26 -33 20 -97 -11 -124 -26 -23 -39 -80 -21 -91 22
-14 83 2 153 38 153 80 208 178 171 302 -11 36 -26 58 -60 87 -106 88 -112 97
-98 151 9 32 21 27 34 -12 10 -31 42 -53 90 -61 8 -1 83 -26 100 -32 18 -8 27
-10 39 -12 5 0 12 -9 15 -19 6 -17 64 -52 86 -52 5 0 21 -5 37 -12 15 -6 33
-12 40 -14 6 -1 53 -11 105 -23 88 -19 156 -32 258 -47 76 -11 83 -12 140 -18
30 -4 71 -9 90 -11 38 -5 123 -13 211 -19 103 -8 127 -16 137 -44 23 -60 37
-135 26 -139 -47 -16 -66 -73 -50 -148 3 -11 5 -31 5 -45 2 -38 12 -48 61 -55
45 -7 54 -11 56 -23 5 -44 19 -84 33 -90 31 -16 112 -4 159 24 75 43 96 73
108 153 3 20 7 47 9 61 3 13 22 40 43 60 54 49 89 107 97 160 17 106 15 104
100 115 28 3 162 27 230 40 280 55 451 103 453 128 4 47 12 71 31 95 28 33 50
81 57 125 7 45 7 47 -2 97 -18 104 -20 100 81 125 122 30 198 56 258 87 99 50
184 102 197 119 3 3 10 8 16 10 28 10 224 188 224 203 0 3 14 20 30 38 17 18
30 38 30 45 0 6 6 16 13 20 14 9 26 28 63 98 32 59 33 110 5 134 -17 15 -25
37 -30 83 -1 4 -28 34 -61 68 -33 34 -60 65 -60 71 0 5 15 40 34 78 59 117 79
215 78 386 0 128 -11 214 -41 321 -13 48 -14 104 -2 104 21 0 121 173 136 233
13 50 27 46 83 -28 4 -5 26 -39 49 -75 23 -36 46 -69 50 -75 13 -16 124 -240
127 -256 6 -43 32 -58 76 -46 19 5 33 25 57 79 59 132 75 226 77 453 l1 140
36 18 c46 22 146 44 156 33 4 -4 9 -58 10 -120 2 -96 -1 -118 -17 -149 -24
-44 -25 -70 -6 -86 11 -10 20 -10 38 0 13 7 24 12 25 11 9 -5 43 17 73 47 75
77 139 197 166 316 3 11 7 27 9 35 2 8 4 18 4 22 1 4 8 14 17 22 21 22 60 20
83 -3 27 -27 91 -7 91 28 0 6 18 11 40 11 39 0 40 -1 74 -67 100 -201 185
-442 211 -598 2 -11 6 -30 9 -43 3 -13 8 -58 11 -100 3 -42 8 -86 10 -97 2
-11 4 -25 4 -31 3 -43 98 -2 166 71 28 30 60 67 71 82 25 32 108 167 105 171
-1 1 10 25 25 54 20 40 93 229 93 241 0 1 2 9 5 17 14 43 26 88 31 115 28 152
25 188 -22 277 -21 40 -41 75 -45 76 -5 2 -8 8 -8 14 0 5 -13 29 -30 53 -16
24 -30 48 -30 54 0 6 -4 11 -9 11 -8 0 -21 18 -66 90 -12 18 -31 42 -62 76
-13 14 -23 28 -23 31 0 3 -16 20 -35 39 -19 18 -35 35 -35 39 0 3 -51 57 -113
119 -110 110 -114 116 -159 222 -53 122 -118 314 -118 344 0 14 7 20 23 21
384 16 571 59 663 154 42 43 58 94 56 180 -2 86 -5 104 -36 180 -13 33 -34 85
-46 116 -31 82 -201 379 -221 387 -5 2 -9 10 -9 18 0 8 -7 17 -15 20 -8 4 -15
10 -15 15 0 13 -28 45 -95 111 -83 81 -93 90 -150 129 -27 19 -55 39 -61 44
-6 6 -27 19 -47 30 l-37 20 0 135 c0 132 -3 204 -15 325 -9 80 -12 104 -31
200 -8 40 -63 205 -77 230 -6 11 -12 26 -13 32 -1 7 -21 48 -44 90 -55 102
-123 206 -189 289 -4 5 -25 32 -44 58 -20 26 -42 53 -49 61 -7 7 -44 48 -83
91 -95 106 -267 273 -362 351 -86 72 -171 133 -183 133 -5 0 -10 5 -10 10 0 6
-6 10 -14 10 -8 0 -16 4 -18 8 -15 35 -441 257 -531 276 -7 2 -19 6 -27 9
-110 43 -306 79 -515 93 -38 3 -79 6 -90 9 -11 2 -26 4 -34 4 -11 1 -13 28 -8
154 7 150 10 193 20 252 8 42 16 100 37 250 16 119 22 307 10 319 -10 9 -86
12 -138 4z m356 -6595 c14 -17 22 -37 20 -53 -3 -23 -6 -25 -52 -23 -27 2 -51
5 -54 7 -7 8 45 96 56 96 4 0 17 -12 30 -27z m108 -171 c13 -8 77 -141 102
-212 10 -30 16 -81 16 -150 1 -189 -10 -199 -107 -107 -27 25 -38 44 -41 73
-6 62 -22 91 -55 102 -17 6 -31 12 -31 14 0 2 9 32 20 68 22 70 26 91 35 160
6 53 30 73 61 52z"/>
<path d="M7427 2959 c-20 -11 -17 -44 14 -155 26 -96 25 -186 -2 -223 -24 -32
-52 -46 -182 -87 -153 -49 -262 -134 -317 -249 -42 -87 -56 -219 -35 -312 3
-13 6 -26 6 -30 3 -21 44 -89 70 -114 55 -53 117 -73 226 -71 142 2 268 74
324 184 32 63 29 177 -6 257 -16 34 -24 67 -21 79 4 10 30 34 59 52 64 41 119
95 140 136 28 55 38 169 23 264 -5 35 -54 130 -66 130 -6 0 -10 6 -10 13 0 7
-14 23 -31 37 -17 14 -37 30 -44 37 -20 19 -83 52 -108 57 -13 2 -31 0 -40 -5z"/>
<path d="M6420 1488 c-35 -37 -87 -139 -100 -196 -13 -58 -9 -137 10 -174 15
-28 98 -106 122 -114 29 -9 32 -43 7 -70 -12 -13 -30 -26 -40 -29 -34 -11 -70
-92 -71 -160 -1 -36 21 -105 33 -105 5 0 9 -7 9 -15 0 -25 99 -74 165 -82 33
-4 62 -7 65 -6 3 1 23 4 45 7 95 14 121 26 177 78 64 61 107 171 110 283 1 20
-11 114 -18 141 -16 65 -80 131 -159 167 -25 12 -166 50 -186 52 -14 1 -67 51
-72 70 -4 11 -9 47 -12 80 -3 33 -8 68 -11 78 -8 24 -49 22 -74 -5z"/>
</g>
</svg>
