<?xml version="1.0" standalone="no"?>
<!DOCTYPE svg PUBLIC "-//W3C//DTD SVG 20010904//EN"
 "http://www.w3.org/TR/2001/REC-SVG-20010904/DTD/svg10.dtd">
<svg version="1.0" xmlns="http://www.w3.org/2000/svg"
 width="500.000000pt" height="500.000000pt" viewBox="0 0 500.000000 500.000000"
 preserveAspectRatio="xMidYMid meet">
<metadata>
Created by potrace 1.14, written by Peter Selinger 2001-2017
</metadata>
<g transform="translate(0.000000,500.000000) scale(0.100000,-0.100000)"
fill="#000000" stroke="none">
<path d="M2010 4976 c0 -16 5 -26 15 -26 8 0 15 6 15 14 0 7 -7 19 -15 26 -13
11 -15 8 -15 -14z"/>
<path d="M2110 4863 c-40 -49 -76 -87 -80 -86 -4 1 -14 -16 -23 -37 -8 -22
-14 -40 -12 -40 1 0 42 52 91 116 79 104 89 114 101 98 12 -17 13 -16 13 3 0
43 -20 31 -90 -54z"/>
<path d="M1986 4915 c-9 -14 -23 -36 -32 -50 -28 -42 -9 -28 25 21 18 25 31
47 28 50 -2 3 -12 -7 -21 -21z"/>
<path d="M2043 4905 c0 -22 2 -30 4 -17 2 12 2 30 0 40 -3 9 -5 -1 -4 -23z"/>
<path d="M2432 4935 c9 -9 -16 -58 -50 -102 -23 -28 -31 -47 -34 -80 -1 -7 -6
-11 -12 -10 -6 1 -9 -5 -8 -13 2 -8 1 -12 -3 -8 -4 4 -30 -11 -58 -33 -60 -48
-104 -72 -117 -64 -5 3 -26 -4 -47 -15 -45 -24 -90 -26 -140 -5 -51 21 -72 20
-42 -4 13 -10 31 -20 38 -23 12 -3 12 -6 -2 -11 -11 -4 -20 -1 -23 7 -4 11
-11 11 -34 3 -31 -12 -54 -2 -31 12 10 7 10 10 1 13 -7 2 6 17 29 32 23 16 41
31 41 33 0 5 -16 -4 -52 -31 -35 -25 -44 -16 -24 23 27 52 17 49 -12 -4 -23
-42 -31 -50 -53 -47 -14 2 -36 -6 -51 -18 -29 -22 -43 -26 -32 -9 4 8 0 8 -15
0 -27 -15 -27 -43 0 -67 16 -14 36 -19 78 -19 31 1 63 3 71 5 32 10 14 -39
-33 -89 -34 -37 -69 -61 -120 -83 -186 -82 -352 -213 -406 -320 -21 -41 -28
-48 -54 -48 -43 0 -30 -7 26 -14 94 -13 183 -50 327 -136 160 -95 285 -177
390 -254 98 -73 287 -253 310 -296 11 -21 11 -23 -1 -14 -80 64 -146 107 -209
136 -41 20 -109 61 -150 91 -41 31 -76 53 -78 48 -8 -24 97 -248 134 -285 8
-9 12 -16 9 -16 -14 0 70 -107 119 -152 l51 -48 -60 0 c-33 0 -85 -7 -115 -15
-30 -8 -80 -17 -110 -20 l-55 -6 -55 73 c-92 121 -280 327 -396 433 -164 151
-166 145 -3 -16 144 -142 346 -367 408 -454 27 -37 29 -45 15 -45 -15 0 -14
-4 7 -26 13 -14 36 -33 51 -42 32 -18 194 -233 358 -472 114 -167 197 -280
206 -280 4 0 -40 69 -112 175 -95 140 -178 260 -184 265 -4 4 -89 119 -168
230 -11 15 -3 13 40 -10 99 -53 155 -63 278 -51 121 12 162 25 222 73 46 36
60 33 90 -22 18 -34 26 -130 11 -130 -5 1 -26 28 -48 62 -22 34 -47 64 -55 66
-13 4 -12 2 1 -14 71 -84 156 -271 214 -473 51 -177 65 -281 64 -461 -2 -240
1 -238 -93 -82 -44 72 -110 171 -149 219 -38 48 -75 97 -83 107 -7 11 -16 17
-19 14 -4 -3 7 -21 23 -39 64 -75 182 -254 280 -429 l31 -55 -20 -45 -19 -45
25 30 c13 16 26 27 28 25 20 -23 108 -290 96 -290 -27 0 -416 203 -464 242 -5
5 -66 50 -135 102 -114 85 -347 302 -337 313 3 2 33 -10 67 -27 69 -35 221
-93 227 -87 2 3 -11 10 -29 17 -144 58 -303 137 -326 162 l-23 26 60 28 c34
15 59 29 58 31 -2 1 -32 -7 -66 -20 l-63 -22 -43 50 c-24 27 -42 51 -41 53 2
1 -9 16 -24 32 -15 16 -56 71 -89 122 -60 90 -61 93 -39 100 22 6 22 6 -4 7
-22 1 -34 15 -78 86 -28 47 -59 105 -69 128 -11 23 -40 86 -65 140 -78 165
-194 467 -232 603 -39 142 -76 242 -82 224 -2 -6 5 -37 16 -68 11 -31 23 -73
27 -92 34 -164 251 -690 371 -896 35 -61 64 -114 64 -118 0 -3 -23 -6 -52 -6
-28 0 -80 -5 -115 -11 l-65 -11 -29 33 c-62 72 -114 162 -117 203 -2 23 -7 55
-12 71 -6 22 -8 12 -4 -35 l5 -65 -32 50 c-74 113 -138 299 -164 470 -27 182
-14 460 25 553 5 12 6 22 1 22 -13 0 -21 -24 -42 -135 -22 -113 -24 -192 -9
-350 20 -206 75 -386 170 -550 l51 -90 -11 -105 c-15 -141 -36 -253 -102 -530
-39 -165 -38 -163 -55 -106 -21 71 -29 47 -9 -28 16 -58 16 -69 2 -127 -54
-224 -60 -412 -21 -659 7 -40 6 -43 -8 -30 -25 24 -92 158 -127 253 -35 94
-53 113 -25 25 65 -201 221 -434 320 -478 l40 -18 -40 -18 c-89 -39 -192 -12
-310 83 -117 95 -201 234 -225 373 -6 37 -8 39 -9 14 -2 -58 64 -228 109 -279
9 -11 34 -51 54 -90 21 -38 56 -94 78 -124 l41 -54 -53 29 c-83 45 -182 144
-234 233 -60 101 -88 173 -120 308 -22 92 -26 132 -26 254 1 79 7 180 15 224
8 43 12 81 10 83 -9 9 -24 -46 -34 -121 -47 -338 50 -686 245 -883 82 -83 139
-120 228 -145 33 -9 51 -20 54 -33 5 -19 6 -19 12 -1 4 10 1 30 -6 44 -6 14
-15 37 -19 50 -7 22 -5 23 16 17 13 -4 48 -10 76 -13 44 -5 62 -1 108 22 30
14 55 30 55 33 0 4 4 13 9 21 7 11 16 7 42 -17 19 -17 68 -53 110 -81 42 -28
79 -58 83 -66 3 -8 16 -15 28 -14 15 0 18 3 8 6 -8 3 -31 21 -51 38 -20 18
-63 50 -95 70 -63 40 -130 105 -153 149 -14 25 -13 28 21 64 55 58 88 107 88
130 0 11 4 23 9 26 13 9 21 62 22 156 1 88 -13 146 -32 135 -6 -4 -25 11 -44
32 -37 43 -146 203 -189 275 l-27 47 25 98 c14 54 39 160 56 237 30 134 51
186 73 186 6 0 21 9 33 21 12 11 28 22 35 23 25 5 54 19 72 34 16 14 22 12 70
-34 29 -28 78 -72 110 -99 31 -26 57 -51 57 -55 0 -4 -24 -10 -52 -14 -55 -7
-142 -35 -134 -43 3 -3 52 7 109 22 l104 26 63 -40 c35 -23 67 -41 72 -41 4 0
8 -5 8 -11 0 -6 -8 -8 -19 -4 -10 3 -64 1 -119 -4 -122 -11 -180 -38 -243
-114 -51 -60 -115 -92 -168 -83 -26 5 -32 4 -21 -3 22 -15 65 -13 106 4 20 8
40 12 45 9 5 -3 9 -27 9 -53 0 -40 4 -50 19 -54 17 -4 19 0 15 38 -4 41 -1 46
60 109 35 36 68 66 73 66 6 0 13 -15 16 -33 3 -17 20 -58 37 -89 25 -46 37
-58 56 -58 15 0 24 6 24 15 0 14 11 19 37 16 7 -1 29 -17 49 -37 41 -38 53
-39 71 -4 6 12 17 27 25 32 10 8 9 8 -4 4 -23 -7 -24 19 -2 28 22 8 6 28 -17
21 -25 -8 -24 7 2 23 28 18 38 5 42 -50 1 -10 5 -18 9 -18 12 0 -1 -93 -14
-101 -7 -4 -6 -8 2 -11 20 -6 4 -67 -34 -131 -19 -31 -31 -57 -26 -57 19 0 71
67 81 105 15 53 5 285 -15 348 l-15 47 32 -17 c18 -9 93 -77 167 -152 216
-218 403 -352 700 -499 96 -48 176 -88 178 -88 6 -3 31 -123 47 -221 18 -112
21 -362 6 -454 -15 -91 -56 -229 -68 -229 -2 0 -33 25 -70 56 -143 122 -222
156 -269 118 -18 -15 -18 -15 3 -5 56 28 118 -1 244 -114 61 -54 83 -80 81
-95 -3 -15 2 -20 22 -20 46 0 126 -115 126 -182 0 -18 4 -27 10 -23 6 4 9 20
6 36 -6 39 7 29 65 -51 43 -59 69 -76 34 -23 -21 32 -136 174 -172 214 l-25
27 55 25 c31 14 75 43 99 65 l43 40 0 -97 c0 -76 4 -104 20 -135 11 -22 26
-42 33 -44 10 -3 9 3 -3 22 -19 29 -15 93 11 155 l14 33 45 -60 c25 -33 52
-63 61 -66 14 -5 14 -10 -5 -41 -24 -41 -12 -47 17 -9 19 27 19 27 47 8 l28
-18 -33 -14 c-19 -8 -57 -12 -87 -10 -46 3 -51 1 -36 -10 21 -16 102 -9 141
12 22 11 33 10 91 -15 56 -24 78 -28 146 -27 44 1 60 3 35 5 -128 8 -250 59
-341 141 -56 50 -109 151 -132 251 -16 67 -9 79 15 28 21 -43 106 -137 125
-137 11 0 10 5 -5 18 -12 9 -39 39 -60 66 l-39 50 38 70 c38 69 49 116 29 116
-5 0 -10 -8 -10 -17 -1 -25 -54 -128 -66 -127 -5 1 -13 11 -19 23 -5 11 -13
21 -17 21 -11 0 -19 -57 -13 -93 6 -32 2 -38 -59 -101 -66 -67 -148 -116 -193
-116 -13 0 -23 1 -23 3 0 2 13 41 28 88 43 127 57 232 56 419 -1 118 -8 199
-23 283 -12 66 -21 125 -21 132 0 8 36 0 113 -26 61 -22 126 -38 142 -38 21 1
24 3 10 6 -106 25 -273 92 -279 111 -2 9 -8 32 -11 50 -4 19 -29 89 -56 157
l-48 124 34 85 c18 48 31 86 29 86 -3 0 0 8 5 18 18 34 43 273 39 369 -2 51
-1 93 2 93 4 0 33 -28 66 -62 65 -69 127 -156 166 -233 14 -27 42 -81 61 -120
50 -98 107 -263 107 -308 0 -21 4 -36 9 -33 15 9 61 -197 61 -274 0 -20 -5
-41 -12 -48 -9 -9 -8 -12 5 -12 13 0 17 -10 18 -42 6 -183 -25 -438 -66 -560
-14 -40 -25 -75 -25 -77 0 -2 -7 -1 -15 3 -28 10 -15 -11 30 -53 58 -53 149
-97 220 -106 162 -20 506 92 600 196 19 21 35 49 35 62 0 19 -4 16 -23 -15
-49 -82 -214 -165 -420 -212 -91 -21 -131 -21 -123 0 3 9 6 18 6 20 0 2 7 4
15 4 32 0 91 143 115 280 40 228 34 399 -22 675 -26 127 -56 215 -115 337
l-46 97 32 71 c33 70 33 72 29 200 l-3 129 22 -37 c13 -20 23 -34 23 -31 0 25
-119 243 -193 354 -83 124 -219 252 -330 311 -45 24 -66 39 -59 46 10 10 65
-13 77 -32 13 -21 121 -67 171 -74 35 -4 72 0 125 13 89 24 211 73 216 88 2 6
-15 22 -39 36 -24 14 -70 49 -103 78 -33 29 -84 64 -114 77 l-55 25 53 23 c28
13 66 33 83 46 l32 22 69 -75 c38 -40 100 -111 138 -156 39 -46 72 -83 75 -83
15 0 -44 75 -154 195 -74 82 -120 140 -116 147 4 6 -8 0 -27 -15 -51 -39 -131
-72 -243 -102 -54 -14 -100 -24 -101 -23 -2 2 14 39 36 82 21 44 37 81 35 83
-2 2 -20 -3 -40 -11 -20 -8 -36 -12 -36 -9 0 3 -8 -2 -19 -11 -16 -14 -23 -15
-46 -4 -33 15 -95 75 -95 93 0 6 11 33 25 59 15 28 25 64 25 89 1 57 16 121
46 188 21 46 29 56 45 52 16 -5 19 0 19 36 0 23 7 56 17 74 19 38 22 55 28
164 2 51 0 85 -6 89 -6 3 -26 -8 -44 -26 l-33 -32 -52 17 c-59 20 -66 31 -75
128 -4 37 -11 67 -15 67 -5 0 -7 6 -4 13 2 7 -7 46 -21 86 -14 41 -23 76 -21
79 7 7 140 -18 208 -39 34 -10 64 -16 67 -14 2 3 -1 5 -8 5 -7 0 -10 4 -7 9 3
5 -13 11 -37 15 -23 4 -86 16 -140 28 -97 22 -100 23 -137 71 -38 48 -39 48
-42 20 -3 -26 -6 -28 -43 -26 -30 2 -35 0 -20 -6 12 -5 -72 -9 -205 -9 -243 0
-370 -15 -588 -68 -185 -46 -341 -115 -401 -178 -45 -47 -30 -47 21 0 88 79
281 151 538 201 115 22 170 27 373 31 131 2 253 1 273 -2 33 -7 34 -8 19 -29
-8 -12 -15 -34 -15 -49 0 -16 -5 -28 -13 -28 -7 0 -35 -43 -62 -95 -27 -52
-52 -95 -56 -95 -30 0 -167 24 -181 31 -10 5 -18 16 -18 24 0 21 -31 19 -36
-3 -5 -15 -20 -17 -152 -17 -142 0 -242 -15 -242 -36 0 -12 14 -11 26 1 17 17
175 32 267 25 75 -6 87 -10 83 -24 -3 -9 -7 -34 -10 -56 l-6 -40 14 45 c14 46
21 27 10 -28 -7 -36 -14 -35 -93 15 -54 35 -70 33 -71 -6 0 -8 -7 -11 -17 -8
-10 2 -74 21 -143 41 -93 28 -149 38 -220 41 l-95 4 80 -9 c97 -11 139 -20
278 -62 l108 -33 -6 -45 c-3 -25 -8 -67 -11 -95 -9 -77 -5 -237 8 -252 6 -7 6
-13 1 -13 -12 0 0 -87 21 -155 9 -27 16 -52 16 -54 0 -2 -38 32 -84 76 -130
123 -316 256 -551 395 -146 87 -180 103 -250 123 -33 9 -66 18 -72 20 -18 6
38 99 95 158 26 26 80 70 120 98 79 55 231 131 245 122 5 -3 12 0 16 6 7 12
145 53 256 77 l60 13 -53 -6 -53 -5 26 37 c28 42 30 56 13 73 -9 9 -3 12 30
12 34 0 40 -3 35 -17 -4 -11 -3 -14 6 -9 6 4 9 16 6 26 -5 14 5 24 47 44 55
27 131 79 206 142 54 45 93 106 95 149 1 18 6 31 10 28 5 -3 7 3 5 12 -1 10
-10 20 -18 23 -8 3 -12 1 -8 -3z m-623 -357 c5 -14 5 -28 -1 -35 -6 -8 -3 -15
9 -22 16 -9 15 -10 -9 -11 -14 0 -35 -3 -45 -6 -15 -5 -15 -4 -3 5 12 8 12 11
-3 17 -22 8 -22 19 5 49 27 31 36 31 47 3z m41 7 c-7 -9 -15 -13 -17 -11 -7 7
7 26 19 26 6 0 6 -6 -2 -15z m187 -11 c-3 -3 -12 -4 -19 -1 -8 3 -5 6 6 6 11
1 17 -2 13 -5z m-27 -59 c22 -27 -51 -108 -108 -118 -30 -6 -32 -5 -22 13 6
11 24 30 40 42 17 12 30 26 30 32 0 5 -10 0 -23 -12 -13 -12 -29 -22 -35 -22
-7 0 -12 -6 -12 -14 0 -19 -46 -66 -65 -66 -12 0 -5 14 23 48 22 26 43 57 46
69 8 25 55 40 67 21 7 -10 9 -9 9 5 0 21 33 23 50 2z m885 -221 c46 -102 51
-171 20 -263 -16 -49 -64 -101 -93 -101 -22 0 -14 105 13 166 29 65 26 83 -4
33 -14 -22 -21 -28 -21 -16 0 38 -18 13 -40 -59 -19 -60 -29 -78 -48 -85 -14
-5 -26 -8 -27 -7 -46 67 -46 74 12 175 35 63 49 80 59 72 17 -14 26 3 23 44
-3 36 40 139 56 133 6 -1 28 -43 50 -92z m-439 -283 c1 -18 -1 -29 -5 -24 -3
4 -17 20 -30 35 -28 32 -20 56 12 35 14 -9 22 -26 23 -46z m98 39 c39 -6 71
-12 73 -14 2 -2 -13 -34 -33 -70 l-37 -67 -30 53 c-16 29 -33 55 -36 58 -3 3
-12 15 -19 28 -14 26 -16 26 82 12z m-279 -70 c10 -11 25 -20 34 -20 14 0 14
-2 1 -10 -12 -8 -12 -10 3 -16 10 -3 16 -11 15 -18 -2 -6 16 -48 39 -92 24
-45 48 -105 54 -134 8 -37 17 -54 30 -57 15 -4 19 -15 20 -47 0 -22 4 -50 8
-61 7 -17 12 -13 34 30 25 46 26 48 22 17 -3 -19 -13 -44 -21 -58 -15 -22 -15
-29 2 -84 11 -33 22 -60 27 -60 4 0 7 19 8 43 1 23 4 53 8 67 22 80 23 -115 0
-203 -15 -60 -7 -81 14 -42 l17 30 -6 -36 c-8 -47 10 -58 26 -16 8 17 19 39
25 47 7 8 15 32 19 52 7 40 60 122 110 173 43 43 99 130 120 188 29 78 41 47
41 -106 0 -130 -1 -133 -34 -199 -33 -63 -39 -69 -118 -113 -114 -63 -110 -76
22 -82 70 -2 125 -11 184 -29 94 -29 94 -32 8 -78 -43 -23 -60 -25 -156 -25
-113 0 -169 -13 -237 -53 -25 -15 -33 -25 -28 -37 3 -9 9 -24 11 -33 3 -10 9
-18 14 -18 5 0 9 -8 9 -17 0 -9 6 -24 13 -32 8 -9 11 -26 8 -40 -6 -23 -7 -22
-26 13 -11 20 -29 39 -40 42 -11 3 -30 10 -43 17 -18 8 -31 8 -55 -2 -117 -48
-109 -47 -184 -21 l-70 23 -34 -36 -34 -36 -72 8 c-66 8 -80 14 -166 72 l-94
64 51 9 c28 5 71 10 96 10 27 1 50 7 57 16 9 12 33 15 110 14 54 0 112 -4 128
-8 17 -4 -2 10 -41 31 -96 51 -105 59 -153 127 -31 46 -38 62 -30 73 9 10 7
13 -8 13 -14 0 -29 17 -49 53 -47 85 -92 192 -83 195 5 2 27 -12 49 -31 22
-18 63 -46 92 -62 62 -33 175 -136 200 -181 14 -25 28 -35 67 -45 33 -8 53
-20 62 -36 13 -24 29 -31 29 -12 0 6 -27 61 -59 122 -60 114 -85 179 -96 255
-6 38 -5 41 12 35 17 -7 17 -6 0 21 -13 19 -20 55 -24 118 -5 80 -4 93 12 104
14 10 15 16 6 27 -8 11 -8 34 0 93 6 44 12 85 12 92 1 17 11 15 32 -8z m221
-35 c-1 -32 -10 -32 -24 0 -10 22 -9 25 7 25 14 0 18 -7 17 -25z m562 -26 c12
-5 22 -14 21 -21 -1 -14 -87 -94 -93 -87 -2 2 -1 32 2 67 5 68 2 66 70 41z
m-521 -61 c-3 -8 -6 -5 -6 6 -1 11 2 17 5 13 3 -3 4 -12 1 -19z m633 8 c0 -2
-8 -10 -17 -17 -16 -13 -17 -12 -4 4 13 16 21 21 21 13z m-360 -155 c0 -11 3
-26 6 -35 7 -18 -4 -20 -25 -7 -9 6 -11 18 -7 35 7 30 26 35 26 7z m180 -211
c0 -11 -4 -20 -9 -20 -5 0 -7 9 -4 20 3 11 7 20 9 20 2 0 4 -9 4 -20z m-185
-280 c-3 -5 -13 -10 -21 -10 -8 0 -12 5 -9 10 3 6 13 10 21 10 8 0 12 -4 9
-10z m215 -179 c-14 -26 -28 -34 -47 -26 -14 5 -12 9 13 25 38 24 47 24 34 1z
m445 -115 c22 -17 58 -47 80 -68 39 -36 39 -38 15 -38 -15 0 -33 10 -44 25
-10 14 -24 25 -30 25 -6 0 -26 18 -45 40 -19 22 -40 40 -47 40 -8 0 -14 7 -14
15 0 19 24 8 85 -39z m-714 -31 c57 -48 99 -65 167 -65 36 0 42 -3 42 -21 0
-29 -18 -60 -54 -91 -25 -22 -29 -30 -20 -44 17 -29 59 -55 76 -49 16 6 68
124 68 153 0 20 16 14 91 -30 82 -49 219 -174 285 -259 56 -73 157 -247 150
-258 -3 -5 2 -26 11 -47 11 -28 16 -71 17 -149 1 -95 -2 -118 -24 -173 -14
-34 -29 -61 -35 -59 -5 2 -15 41 -22 88 -13 93 -16 106 -45 198 -20 62 -57
136 -64 128 -2 -1 8 -31 22 -65 57 -141 91 -347 79 -477 -11 -118 -35 -247
-62 -320 -14 -38 -27 -78 -30 -88 -10 -33 -22 -17 -29 41 -3 31 -17 93 -29
137 -28 99 -33 122 -40 210 -13 160 -38 248 -103 365 -59 106 -72 133 -72 149
0 8 -3 12 -6 8 -3 -3 1 -27 9 -54 20 -63 27 -123 18 -148 -7 -17 -11 -13 -34
26 -36 61 -57 124 -57 170 0 41 -21 68 -73 96 -46 23 -41 10 8 -25 40 -28 45
-36 45 -71 l0 -39 -72 74 -72 75 -1 79 c0 44 -3 80 -6 80 -9 0 -19 -39 -19
-80 l-1 -35 -14 33 c-8 17 -17 32 -20 32 -3 0 -4 -4 -1 -9 3 -5 13 -44 21 -88
19 -100 19 -286 0 -395 -15 -88 -69 -255 -87 -273 -7 -7 -8 -2 -3 15 16 56 25
288 15 404 -15 170 -70 374 -149 540 l-39 85 44 -6 c27 -3 49 -1 57 6 12 9 26
-14 77 -124 35 -74 65 -133 66 -132 2 2 -2 20 -8 40 -10 32 -9 40 4 53 25 26
83 1 152 -65 32 -31 53 -47 45 -35 -8 11 -38 41 -66 67 -57 50 -112 69 -138
47 -9 -7 -17 -11 -18 -9 -14 23 -101 207 -112 240 -9 24 -26 60 -39 79 -39 58
-41 77 -9 94 41 22 46 21 104 -29z m-1484 -473 c25 -29 44 -54 42 -55 -2 -2
-26 -13 -54 -26 -33 -15 -60 -37 -79 -64 -34 -48 -42 -38 -28 30 6 27 14 88
18 137 l7 89 24 -29 c13 -16 45 -53 70 -82z m329 -79 c43 -76 124 -194 166
-244 21 -25 38 -48 38 -52 0 -4 -12 -7 -28 -7 -48 0 -307 184 -406 288 l-29
31 24 6 c84 19 109 23 156 24 51 1 51 1 79 -46z m1653 -483 c11 -36 23 -92 26
-125 l7 -60 -53 115 c-45 98 -53 125 -56 185 l-3 70 30 -60 c16 -33 38 -89 49
-125z m-1663 81 c-20 -22 -54 -33 -61 -20 -3 5 9 15 27 23 46 20 54 19 34 -3z
m1982 -273 c112 -235 173 -580 151 -850 -14 -174 -71 -390 -109 -413 -9 -5
-11 -4 -6 3 4 7 3 12 -2 12 -5 0 -17 -18 -27 -41 -19 -41 -19 -41 -65 -36 -25
2 -57 9 -72 15 l-28 11 21 48 c11 26 25 93 32 150 9 87 8 125 -7 249 -9 80
-28 197 -42 260 l-25 113 36 91 c58 145 78 235 90 395 2 33 4 63 4 68 2 18 12
2 49 -75z m-2483 -83 c50 -84 105 -157 162 -216 42 -43 44 -49 50 -117 4 -53
1 -90 -12 -140 -24 -89 -35 -110 -89 -162 -25 -25 -46 -52 -46 -60 0 -8 11
-32 24 -51 19 -27 22 -39 13 -48 -20 -20 -55 -11 -105 28 -66 52 -91 97 -103
178 -12 77 -14 376 -4 450 9 61 35 203 41 223 6 18 9 15 69 -85z m2358 -915
c1 -126 -1 -154 -22 -217 l-23 -73 -30 16 c-17 9 -41 27 -54 39 l-23 24 19 44
c17 39 40 123 54 197 2 14 7 36 10 50 9 40 15 88 22 190 l8 95 19 -110 c12
-69 19 -164 20 -255z m-2580 99 c42 -29 52 -43 62 -82 9 -37 9 -47 0 -47 -31
0 -117 97 -159 179 l-18 34 32 -24 c18 -13 55 -40 83 -60z m2312 -377 c4 -19
-2 -45 -17 -78 l-23 -49 -3 54 c-2 29 0 61 4 70 4 9 6 19 6 24 -1 4 4 7 12 7
8 0 17 -13 21 -28z"/>
<path d="M2807 4273 c-4 -3 -7 -22 -7 -41 0 -44 6 -39 14 11 6 37 5 42 -7 30z"/>
<path d="M2851 4067 c-25 -40 -26 -51 -7 -44 8 3 17 1 20 -6 3 -7 3 -2 0 10
-3 12 0 32 6 43 19 36 4 33 -19 -3z"/>
<path d="M3046 2367 c3 -10 9 -15 12 -12 3 3 0 11 -7 18 -10 9 -11 8 -5 -6z"/>
<path d="M3060 2335 c0 -5 5 -17 10 -25 5 -8 10 -10 10 -5 0 6 -5 17 -10 25
-5 8 -10 11 -10 5z"/>
<path d="M3101 2223 c-1 -12 4 -25 9 -28 12 -7 12 2 0 30 -8 19 -9 19 -9 -2z"/>
<path d="M1658 2133 c6 -2 18 -2 25 0 6 3 1 5 -13 5 -14 0 -19 -2 -12 -5z"/>
<path d="M2170 4820 c-7 -33 -11 -63 -8 -65 3 -3 11 22 18 55 7 33 11 63 8 65
-3 3 -11 -22 -18 -55z"/>
<path d="M2035 4820 c-4 -12 -5 -24 -2 -27 3 -2 8 5 12 17 4 12 5 24 2 27 -3
2 -8 -5 -12 -17z"/>
<path d="M1906 4774 c-15 -31 -24 -59 -22 -61 2 -2 16 21 30 53 15 31 24 59
22 61 -2 2 -16 -21 -30 -53z"/>
<path d="M2273 4727 c-15 -13 -50 -38 -76 -56 -27 -18 -46 -35 -44 -38 6 -5
120 72 143 98 24 26 12 24 -23 -4z"/>
<path d="M2119 4693 l-24 -28 28 24 c25 23 32 31 24 31 -2 0 -14 -12 -28 -27z"/>
<path d="M1959 4683 c-13 -16 -12 -17 4 -4 9 7 17 15 17 17 0 8 -8 3 -21 -13z"/>
<path d="M2223 4443 c20 -2 54 -2 75 0 20 2 3 4 -38 4 -41 0 -58 -2 -37 -4z"/>
<path d="M2103 4433 c9 -2 25 -2 35 0 9 3 1 5 -18 5 -19 0 -27 -2 -17 -5z"/>
<path d="M2430 4431 c75 -14 169 -22 137 -12 -15 5 -62 12 -105 15 -57 4 -65
3 -32 -3z"/>
<path d="M2620 4402 c37 -13 120 -23 94 -12 -12 4 -43 11 -70 14 -32 4 -41 3
-24 -2z"/>
<path d="M3208 4263 c7 -3 16 -2 19 1 4 3 -2 6 -13 5 -11 0 -14 -3 -6 -6z"/>
<path d="M3258 4253 c6 -2 18 -2 25 0 6 3 1 5 -13 5 -14 0 -19 -2 -12 -5z"/>
<path d="M3215 4240 c27 -12 43 -12 25 0 -8 5 -22 9 -30 9 -10 0 -8 -3 5 -9z"/>
<path d="M3308 4243 c6 -2 18 -2 25 0 6 3 1 5 -13 5 -14 0 -19 -2 -12 -5z"/>
<path d="M3358 4233 c6 -2 18 -2 25 0 6 3 1 5 -13 5 -14 0 -19 -2 -12 -5z"/>
<path d="M3261 4226 c2 -2 55 -22 118 -46 132 -49 242 -100 359 -165 45 -25
82 -44 82 -41 0 7 -167 100 -246 136 -117 54 -334 135 -313 116z"/>
<path d="M3408 4223 c6 -2 18 -2 25 0 6 3 1 5 -13 5 -14 0 -19 -2 -12 -5z"/>
<path d="M3458 4213 c6 -2 18 -2 25 0 6 3 1 5 -13 5 -14 0 -19 -2 -12 -5z"/>
<path d="M3508 4203 c7 -3 16 -2 19 1 4 3 -2 6 -13 5 -11 0 -14 -3 -6 -6z"/>
<path d="M3560 4190 c14 -4 34 -8 45 -8 16 0 15 2 -5 8 -14 4 -34 8 -45 8 -16
0 -15 -2 5 -8z"/>
<path d="M3668 4163 c7 -3 16 -2 19 1 4 3 -2 6 -13 5 -11 0 -14 -3 -6 -6z"/>
<path d="M3715 4150 c11 -5 27 -9 35 -9 9 0 8 4 -5 9 -11 5 -27 9 -35 9 -9 0
-8 -4 5 -9z"/>
<path d="M3801 4126 c2 -2 33 -14 69 -26 85 -28 307 -137 390 -190 94 -61 208
-159 302 -258 47 -51 67 -68 48 -42 -95 129 -284 283 -470 383 -112 60 -367
160 -339 133z"/>
<path d="M1076 3898 c-38 -39 -56 -66 -66 -101 -9 -35 -20 -51 -37 -58 -13 -5
-32 -23 -41 -40 -9 -18 -53 -68 -97 -113 -88 -90 -221 -277 -282 -401 -91
-180 -147 -348 -203 -600 -38 -170 -85 -280 -166 -385 -84 -110 -107 -132
-149 -140 -39 -8 -39 -8 -7 -9 28 -1 48 13 142 100 61 55 110 103 110 107 0 3
-16 -9 -35 -28 -39 -38 -46 -33 -15 10 61 85 99 196 156 450 50 222 172 515
270 651 22 30 47 66 57 82 33 51 139 168 180 198 22 16 42 39 44 51 4 26 29
55 52 63 9 3 25 30 36 61 21 63 80 129 129 143 l31 9 -28 1 c-21 1 -41 -12
-81 -51z m-866 -1702 c0 -2 -8 -10 -17 -17 -16 -13 -17 -12 -4 4 13 16 21 21
21 13z"/>
<path d="M3264 3898 c-17 -18 -43 -53 -58 -78 -17 -29 -20 -36 -6 -20 86 103
103 121 111 113 4 -4 9 -31 11 -60 2 -28 6 -49 9 -47 9 5 40 -108 45 -167 3
-30 9 -79 13 -109 l9 -55 1 60 c0 33 -6 95 -14 138 -8 43 -15 85 -15 93 0 13
177 -90 440 -256 147 -93 214 -125 309 -146 42 -9 83 -19 91 -21 24 -9 -33
-21 -116 -26 -42 -3 -78 -8 -81 -11 -18 -17 108 -8 199 15 42 10 87 20 100 20
17 1 18 3 6 6 -10 2 -18 9 -18 15 0 6 -6 6 -15 -2 -12 -10 -31 -10 -93 0 -146
23 -205 51 -452 212 -63 41 -141 89 -174 106 -32 18 -77 45 -100 61 -22 15
-55 35 -72 44 -26 13 -34 27 -50 82 -22 75 -35 81 -80 33z"/>
<path d="M3975 3860 c10 -11 20 -20 23 -20 3 0 -3 9 -13 20 -10 11 -20 20 -23
20 -3 0 3 -9 13 -20z"/>
<path d="M4060 3786 c0 -2 7 -7 16 -10 8 -3 12 -2 9 4 -6 10 -25 14 -25 6z"/>
<path d="M4145 3710 c21 -22 41 -40 44 -40 3 0 -13 18 -34 40 -21 22 -41 40
-44 40 -3 0 13 -18 34 -40z"/>
<path d="M4245 3610 c27 -27 51 -50 54 -50 3 0 -17 23 -44 50 -27 28 -51 50
-54 50 -3 0 17 -22 44 -50z"/>
<path d="M4330 3515 c19 -19 36 -35 39 -35 3 0 -10 16 -29 35 -19 19 -36 35
-39 35 -3 0 10 -16 29 -35z"/>
<path d="M3604 3489 c-3 -6 -36 -31 -73 -55 -36 -24 -81 -56 -98 -70 l-33 -27
-1 54 -1 54 -8 -51 c-15 -105 -49 -176 -109 -232 -35 -33 -35 -33 -4 -11 40
27 90 88 108 132 17 41 61 82 157 146 l77 51 -4 -44 c-3 -25 -9 -65 -15 -91
-10 -46 -5 -74 11 -58 10 10 29 124 29 176 0 37 -20 52 -36 26z"/>
<path d="M3311 3454 c-12 -20 -20 -38 -18 -40 2 -2 14 14 26 36 28 50 21 53
-8 4z"/>
<path d="M4380 3464 c0 -6 15 -23 33 -40 l32 -29 -30 35 c-16 19 -31 37 -32
39 -2 2 -3 0 -3 -5z"/>
<path d="M4491 3324 c30 -38 79 -102 108 -141 29 -40 55 -73 58 -73 10 0 -190
264 -209 277 -7 3 13 -25 43 -63z"/>
<path d="M3256 3365 c-9 -26 -7 -32 5 -12 6 10 9 21 6 23 -2 3 -7 -2 -11 -11z"/>
<path d="M3196 3353 c-6 -14 -5 -15 5 -6 7 7 10 15 7 18 -3 3 -9 -2 -12 -12z"/>
<path d="M3176 3315 c-9 -26 -7 -32 5 -12 6 10 9 21 6 23 -2 3 -7 -2 -11 -11z"/>
<path d="M4060 3285 c0 -3 19 -17 43 -32 81 -53 215 -163 266 -219 28 -30 51
-50 51 -42 0 29 -142 159 -269 247 -69 47 -91 58 -91 46z"/>
<path d="M3560 3208 c0 -6 -8 -21 -17 -32 -13 -15 -10 -14 10 3 28 25 35 41
17 41 -5 0 -10 -5 -10 -12z"/>
<path d="M4666 3090 c15 -28 65 -100 70 -100 8 0 -27 57 -54 88 -13 15 -20 20
-16 12z"/>
<path d="M4765 2933 c15 -27 35 -55 43 -63 11 -11 10 -7 -3 14 -9 16 -26 44
-37 63 -11 18 -22 33 -25 33 -3 0 7 -21 22 -47z"/>
<path d="M4560 2835 c0 -8 7 -15 15 -15 8 0 15 4 15 9 0 5 -7 11 -15 15 -9 3
-15 0 -15 -9z"/>
<path d="M4845 2791 c32 -63 45 -111 32 -111 -7 0 -70 29 -139 63 -110 56
-126 61 -125 44 2 -23 72 -78 211 -163 52 -32 99 -68 104 -79 13 -27 72 -100
72 -89 0 5 -11 26 -25 47 -27 39 -26 44 7 26 15 -8 19 -8 16 1 -2 7 -31 27
-65 45 -80 42 -278 172 -295 192 -7 10 10 4 42 -13 30 -17 84 -42 120 -56 60
-24 175 -75 193 -85 4 -2 7 0 7 4 0 5 -22 17 -50 28 -27 11 -50 25 -50 33 0
20 -41 115 -58 132 -10 11 -10 6 3 -19z"/>
<path d="M487 2770 c-12 -32 -87 -239 -113 -313 -15 -43 -42 -104 -60 -135
-29 -48 -30 -52 -8 -27 20 23 24 25 20 10 -65 -247 -84 -485 -50 -632 19 -85
89 -233 110 -233 11 0 9 8 -11 34 -32 42 -73 141 -86 209 -13 71 -13 279 1
374 25 167 81 365 164 576 26 65 45 126 43 135 -3 14 -5 15 -10 2z"/>
<path d="M3846 2748 c16 -18 56 -62 89 -98 88 -96 160 -183 238 -290 59 -79
136 -237 170 -345 35 -111 79 -296 73 -302 -3 -3 -56 19 -118 50 -180 88 -303
198 -527 472 -63 77 -120 147 -127 155 -67 76 -186 248 -205 296 -6 16 -13 24
-16 17 -8 -21 138 -248 212 -329 6 -6 28 -33 50 -59 22 -27 45 -53 50 -59 6
-6 42 -49 80 -96 95 -115 225 -245 310 -309 60 -45 178 -109 276 -149 24 -10
27 -18 40 -109 14 -107 18 -336 7 -423 -11 -82 -53 -235 -88 -319 -97 -236
-327 -530 -514 -660 -68 -47 -64 -53 9 -13 49 27 53 28 100 15 28 -8 71 -11
97 -8 l47 6 20 -47 c12 -26 21 -48 21 -50 0 -1 -12 -5 -27 -7 -16 -2 4 -4 42
-4 51 -1 61 1 39 6 -44 11 -54 19 -54 46 0 13 -7 30 -15 39 -21 21 -20 23 23
30 20 3 68 22 106 41 l69 35 31 -24 c47 -35 92 -56 123 -56 51 0 150 56 219
123 l65 64 77 6 c76 5 162 31 162 48 0 5 -10 3 -22 -5 -32 -20 -126 -38 -173
-34 -33 3 -37 5 -20 13 63 28 215 151 215 175 0 7 -24 -10 -52 -38 -46 -44
-104 -91 -144 -115 -7 -4 10 37 36 91 44 89 53 100 104 132 31 19 56 39 56 43
0 9 -8 5 -66 -34 l-42 -29 14 46 c32 108 38 276 14 424 -17 105 -18 110 -7
110 20 0 87 53 87 68 0 11 -13 4 -38 -21 -21 -20 -43 -37 -49 -37 -5 0 -23 44
-38 98 -43 152 -61 204 -93 273 l-30 64 75 23 c96 30 90 39 -8 13 -40 -12 -75
-19 -77 -16 -6 6 -20 30 -51 86 -32 60 -82 131 -87 126 -3 -2 12 -33 32 -68
20 -35 48 -83 61 -106 l25 -43 -91 0 c-159 0 -191 16 -206 103 -21 116 -98
345 -157 461 -18 36 -80 130 -115 176 -103 133 -308 360 -326 360 -6 0 2 -15
19 -32z m787 -1082 l99 -1 40 -84 c42 -89 54 -125 93 -290 63 -269 59 -505
-12 -683 -8 -20 -20 -35 -26 -33 -7 3 -28 -16 -47 -41 -48 -63 -200 -194 -223
-194 -3 0 11 16 29 36 73 77 100 186 91 365 -7 115 -32 249 -47 249 -4 0 -1
-26 6 -57 23 -95 -7 -237 -81 -388 -42 -84 -103 -160 -170 -210 -11 -8 -15
-15 -9 -15 23 0 94 61 135 116 48 65 114 204 125 260 11 63 23 75 25 24 6
-179 -28 -280 -122 -364 -50 -45 -53 -46 -118 -46 -61 0 -70 3 -94 28 -18 19
-27 39 -27 60 0 18 -5 32 -10 32 -20 0 -21 -28 -2 -84 l19 -57 -41 -24 c-62
-36 -93 -46 -181 -59 -64 -10 -87 -9 -120 2 l-41 13 93 95 c197 201 309 378
393 619 75 217 86 390 44 712 l-6 41 44 -10 c24 -6 87 -11 141 -12z m176
-1158 c-67 -134 -196 -261 -292 -289 -55 -16 -144 24 -184 81 -15 21 -15 22 5
11 11 -6 52 -11 90 -11 103 0 187 45 306 164 50 50 92 91 94 90 2 -1 -6 -22
-19 -46z"/>
<path d="M4572 2709 c4 -34 20 -83 34 -109 26 -48 121 -172 217 -283 95 -111
160 -199 149 -206 -6 -4 -3 -23 9 -51 16 -37 19 -40 16 -15 -2 17 -8 39 -12
49 -6 14 -5 17 3 12 7 -4 12 -2 12 6 0 12 -54 82 -270 350 -42 51 -85 107 -96
123 -26 37 -54 119 -54 157 0 15 -4 28 -8 28 -5 0 -5 -28 0 -61z"/>
<path d="M1141 2734 c0 -11 3 -14 6 -6 3 7 2 16 -1 19 -3 4 -6 -2 -5 -13z"/>
<path d="M1304 2020 c-15 -22 -30 -37 -35 -34 -5 3 -6 -2 -3 -11 4 -9 7 -14 8
-13 0 2 21 25 46 51 31 33 39 47 27 47 -9 0 -29 -18 -43 -40z"/>
<path d="M3730 2043 c0 -4 18 -20 39 -35 51 -36 192 -191 270 -298 168 -228
243 -501 207 -750 -8 -58 -17 -112 -19 -120 -2 -8 -7 -28 -12 -45 -4 -16 -19
-56 -32 -89 -33 -79 -22 -83 15 -4 108 230 105 521 -9 789 -27 64 -102 190
-144 244 -122 157 -316 346 -315 308z"/>
<path d="M1633 1769 c10 -6 23 -22 28 -37 8 -21 12 -23 19 -12 6 9 5 17 -2 21
-6 4 -8 11 -4 17 3 5 -4 12 -17 16 -33 9 -44 7 -24 -5z"/>
<path d="M1660 1638 c0 -20 78 -103 88 -93 4 4 1 10 -6 12 -7 3 -28 25 -47 50
-19 25 -35 39 -35 31z"/>
<path d="M1752 900 c0 -14 2 -19 5 -12 2 6 2 18 0 25 -3 6 -5 1 -5 -13z"/>
<path d="M4960 810 c-13 -9 -13 -10 0 -10 8 0 22 5 30 10 13 9 13 10 0 10 -8
0 -22 -5 -30 -10z"/>
<path d="M1500 582 c0 -27 30 -70 54 -76 13 -3 32 -8 43 -11 10 -3 -1 3 -24
14 -24 11 -43 26 -43 34 0 18 -29 56 -30 39z"/>
<path d="M990 495 c0 -5 5 -17 10 -25 5 -8 10 -10 10 -5 0 6 -5 17 -10 25 -5
8 -10 11 -10 5z"/>
<path d="M1620 486 c0 -2 21 -11 48 -21 61 -24 138 -69 237 -140 44 -32 73
-50 66 -41 -21 25 -216 155 -273 181 -48 23 -78 31 -78 21z"/>
<path d="M2429 443 c-13 -16 -12 -17 4 -4 16 13 21 21 13 21 -2 0 -10 -8 -17
-17z"/>
<path d="M1031 400 c14 -31 19 -36 19 -24 0 6 -7 19 -16 30 -14 18 -14 18 -3
-6z"/>
<path d="M2245 319 c-49 -27 -87 -48 -82 -49 13 0 165 79 172 90 3 5 5 9 3 9
-2 -1 -43 -23 -93 -50z"/>
<path d="M1060 340 c6 -11 13 -20 16 -20 2 0 0 9 -6 20 -6 11 -13 20 -16 20
-2 0 0 -9 6 -20z"/>
<path d="M2018 253 c7 -3 16 -2 19 1 4 3 -2 6 -13 5 -11 0 -14 -3 -6 -6z"/>
<path d="M2075 250 c-28 -7 -28 -8 -5 -9 14 0 32 4 40 9 17 11 8 11 -35 0z"/>
<path d="M4346 126 c-15 -14 -26 -32 -26 -41 0 -12 -9 -14 -42 -10 -28 3 -20
-1 22 -10 36 -9 103 -27 149 -41 92 -28 122 -28 38 1 -51 17 -52 18 -49 54 3
44 -5 57 -40 66 -21 5 -33 1 -52 -19z"/>
<path d="M1200 137 c0 -2 15 -16 33 -33 l32 -29 -29 33 c-28 30 -36 37 -36 29z"/>
<path d="M3720 120 c-19 -11 -29 -19 -22 -20 14 0 72 28 72 35 0 9 -15 4 -50
-15z"/>
<path d="M3770 94 c-14 -3 -45 -7 -68 -10 -24 -3 -42 -7 -40 -9 2 -2 55 2 118
9 63 8 93 14 65 13 -27 0 -61 -1 -75 -3z"/>
<path d="M4033 93 c9 -2 23 -2 30 0 6 3 -1 5 -18 5 -16 0 -22 -2 -12 -5z"/>
<path d="M3618 63 c7 -3 16 -2 19 1 4 3 -2 6 -13 5 -11 0 -14 -3 -6 -6z"/>
<path d="M1295 40 c10 -11 20 -20 23 -20 3 0 -3 9 -13 20 -10 11 -20 20 -23
20 -3 0 3 -9 13 -20z"/>
<path d="M1885 40 c10 -11 20 -20 23 -20 3 0 -3 9 -13 20 -10 11 -20 20 -23
20 -3 0 3 -9 13 -20z"/>
<path d="M3578 53 c7 -3 16 -2 19 1 4 3 -2 6 -13 5 -11 0 -14 -3 -6 -6z"/>
<path d="M3538 43 c7 -3 16 -2 19 1 4 3 -2 6 -13 5 -11 0 -14 -3 -6 -6z"/>
<path d="M3498 33 c7 -3 16 -2 19 1 4 3 -2 6 -13 5 -11 0 -14 -3 -6 -6z"/>
<path d="M2066 15 c4 -8 8 -15 10 -15 2 0 4 7 4 15 0 8 -4 15 -10 15 -5 0 -7
-7 -4 -15z"/>
</g>
</svg>
